<?xml version="1.0" encoding="utf-8"?>
<!-- Generator: Adobe Illustrator 25.2.0, SVG Export Plug-In . SVG Version: 6.00 Build 0)  -->
<svg version="1.1" id="Calque_1" xmlns="http://www.w3.org/2000/svg" xmlns:xlink="http://www.w3.org/1999/xlink" x="0px" y="0px"
	 width="256px" height="256px" viewBox="0 0 256 256" style="enable-background:new 0 0 256 256;" xml:space="preserve">
<style type="text/css">
	.st0{fill:#008A56;}
	.st1{fill:#6C7F92;}
	.st2{fill:#BC2A2A;}
	.st3{fill:#DCDEE2;}
	.st4{fill:#D62929;}
	.st5{fill:#FFFFFF;}
</style>
<path class="st0" d="M249,7v242H7V7H249 M256,0H0v256h256V0L256,0z"/>
<path class="st1" d="M113.4,114.6c-2,40.3-38.2,36.7-38.4-2C74.8,91.4,116.5,92.3,113.4,114.6z"/>
<path class="st1" d="M115.2,187.8c0-7,4.5-13.1,10.8-15.3c-0.2-5.4,0.9-10.2,3.3-14.9c-7-4.3-16.4-6.1-24-8.6
	c-10.8-1.8-19.3-0.5-21.6,0c-25.6,8.6-27.6,3.4-28.8,32.6c0,1.6,0,1.8,1.1,2.3c18.2,9,39.4,8.2,59.1,5.2V187.8z"/>
<path class="st0" d="M181.5,178.5h-2v-10.1c0-12.8-11-22.7-23.6-21.8c-11.9,0-21.8,9.7-21.8,21.8v10.1c-5.2-0.7-10.6,2.7-10.3,8.3
	V222c0,4.5,3.8,8.3,8.3,8.3h49.7c4.5,0,8.3-3.8,8.3-8.3v-35.1C189.8,182.3,186,178.5,181.5,178.5z M145.1,168.2
	c0-6.8,6.1-11.3,12.4-10.6c5.8,0,10.6,4.7,10.6,10.6v10.4h-22.9V168.2z"/>
<rect x="29.7" y="29.5" class="st2" width="182" height="55.1"/>
<rect x="25.9" y="25.7" class="st3" width="182" height="55.1"/>
<g>
	<path d="M39.5,45.8h4.1l2.8,12.1l3-12.1h4.2l3,12l2.8-12h3.8l-4.6,15.9h-4.3l-2.9-11.1l-2.9,11.1h-4.3L39.5,45.8z"/>
	<path d="M74.7,45.6c4.1,0,7.2,3.2,7.2,8.1c0,4.9-3.2,8.2-7.2,8.2c-2.5,0-4.3-1.2-5.2-2.5v9.8h-4V45.8h4v2.3
		C70.4,46.8,72.2,45.6,74.7,45.6z M73.6,49.1c-2.1,0-4.2,1.7-4.2,4.7c0,3,2,4.7,4.2,4.7c2.2,0,4.2-1.7,4.2-4.7
		C77.8,50.7,75.8,49.1,73.6,49.1z"/>
	<path d="M84.9,49.8H97v3.4H84.9V49.8z"/>
	<path d="M107.7,45.6c2.5,0,4.3,1.2,5.2,2.5v-2.3h4v15.9h-4v-2.3c-0.9,1.4-2.7,2.6-5.3,2.6c-4,0-7.2-3.3-7.2-8.2
		C100.5,48.8,103.7,45.6,107.7,45.6z M108.7,49.1c-2.1,0-4.2,1.6-4.2,4.6c0,3,2,4.7,4.2,4.7c2.2,0,4.2-1.7,4.2-4.7
		C112.9,50.8,110.9,49.1,108.7,49.1z"/>
	<path d="M127.1,45.6c2.1,0,4.1,1,5.2,2.5v-7.5h4.1v21.2h-4.1v-2.3c-0.9,1.5-2.7,2.6-5.2,2.6c-4,0-7.2-3.3-7.2-8.2
		C119.8,48.8,123.1,45.6,127.1,45.6z M128.1,49.1c-2.1,0-4.2,1.6-4.2,4.6c0,3,2,4.7,4.2,4.7c2.2,0,4.2-1.7,4.2-4.7
		C132.3,50.8,130.3,49.1,128.1,49.1z"/>
	<path d="M162.4,52.9c0-2.5-1.4-3.8-3.5-3.8c-2.1,0-3.5,1.3-3.5,3.8v8.8h-4v-8.8c0-2.5-1.4-3.8-3.5-3.8c-2.2,0-3.6,1.3-3.6,3.8v8.8
		h-4V45.8h4v1.9c1-1.3,2.7-2.1,4.7-2.1c2.5,0,4.5,1.1,5.6,3c1-1.8,3.1-3,5.4-3c3.8,0,6.5,2.4,6.5,6.8v9.3h-4V52.9z"/>
	<path d="M169.8,41.6c0-1.3,1-2.3,2.5-2.3c1.4,0,2.5,1,2.5,2.3s-1.1,2.3-2.5,2.3C170.9,43.9,169.8,42.9,169.8,41.6z M170.2,45.8h4
		v15.9h-4V45.8z"/>
	<path d="M189.3,52.9c0-2.5-1.4-3.9-3.5-3.9c-2.2,0-3.6,1.4-3.6,3.9v8.8h-4V45.8h4v2c1-1.3,2.7-2.2,4.8-2.2c3.7,0,6.3,2.4,6.3,6.8
		v9.3h-4V52.9z"/>
</g>
<circle class="st4" cx="200.9" cy="98.9" r="29.1"/>
<rect x="182.8" y="96.2" transform="matrix(0.7071 0.7071 -0.7071 0.7071 128.7642 -113.1255)" class="st5" width="36.2" height="5.4"/>
<rect x="182.8" y="96.2" transform="matrix(0.7071 -0.7071 0.7071 0.7071 -11.0582 171.0419)" class="st5" width="36.2" height="5.4"/>
</svg>
